<svg xmlns="http://www.w3.org/2000/svg" viewBox="0 0 34 34" width="18" height="18"><g fill="#ffc46c"><path d="m6.78 3.36l-6.05 16.09 15.69 10.8-13.07-16.49 7.75.01-4.32-10.41"/><path d="m27.22 3.36l6.05 16.09-15.69 10.8 13.1-16.71-7.58.22 4.12-10.4"/></g><g fill="#fc6d26"><path d="M17.05,32.53a1.48,1.48,0,0,1-1.42-1L9.92,14.23a1.51,1.51,0,0,1,.21-1.35,1.49,1.49,0,0,1,1.21-.62H22.76a1.49,1.49,0,0,1,1.42,2L18.48,31.5A1.5,1.5,0,0,1,17.05,32.53ZM13.42,15.26l3.63,11,3.63-11Z"/><path d="M17.05 32.53A1.51 1.51 0 0 1 15.87 32L2.17 14.69a1.5 1.5 0 0 1 1.18 -2.43h8a1.48 1.48 0 0 1 1.42 1l5.71 17.27a1.5 1.5 0 0 1 -1.42 2M6.45 15.26L13 23.48l-2.72-8.22"/><path d="M17,32.54a1.5,1.5,0,0,1-.87-.28l-15-10.73a2.65,2.65,0,0,1-1-3l1.74-5.25a1.5,1.5,0,0,1,2.6-.46l13.7,17.28A1.5,1.5,0,0,1,17,32.54ZM3.11,19.24l6.14,4.39L3.89,16.87Z"/><path d="M11.34,15.26h-8a1.49,1.49,0,0,1-1.22-.62,1.51,1.51,0,0,1-.21-1.35L5.35,2.89a2.11,2.11,0,0,1,2-1.43h0a2.11,2.11,0,0,1,2,1.43l3.44,10.4a1.51,1.51,0,0,1-.21,1.35A1.49,1.49,0,0,1,11.34,15.26Zm-5.92-3H9.27L7.34,6.44Z"/><path d="M17.05,32.53a1.5,1.5,0,0,1-1.42-2l5.71-17.27a1.48,1.48,0,0,1,1.42-1h8a1.5,1.5,0,0,1,1.17,2.43L18.23,32A1.53,1.53,0,0,1,17.05,32.53Zm6.79-17.27-2.72,8.23,6.53-8.23Z"/><path d="M17.05,32.53a1.5,1.5,0,0,1-1.17-2.43l13.7-17.27a1.5,1.5,0,0,1,2.6.46l1.73,5.25a2.62,2.62,0,0,1-1,3l-15,10.72A1.46,1.46,0,0,1,17.05,32.53ZM30.2,16.87l-5.35,6.75L31,19.24Z"/><path d="m30.76 15.26h-8a1.5 1.5 0 0 1 -1.43 -2l3.44-10.4a2.09 2.09 0 0 1 2 -1.43 2.1 2.1 0 0 1 2 1.41l3.44 10.42a1.5 1.5 0 0 1 -1.42 2m-5.96-3h3.85l-1.92-5.82"/></g></svg>